<?xml version='1.0' encoding='utf-8'?>
<!DOCTYPE svg PUBLIC '-//W3C//DTD SVG 1.1//EN' 'http://www.w3.org/Graphics/SVG/1.1/DTD/svg11.dtd'>
<svg version="1.1" xmlns="http://www.w3.org/2000/svg" viewBox="0 0 512 512" xmlns:xlink="http://www.w3.org/1999/xlink" enable-background="new 0 0 512 512" fill="white">
  <g>
    <path d="m154.4,75.5c-43,25-75.1,64.1-91.3,111.5-17.8,52.2-14.3,108.2 10,157.7 35,71.3 106.1,115.6 185.6,115.6 107.4,0 166.6-76 186.3-117.7-35.5,15.2-73.3,23.1-110.4,23.1-84.4,0-157-41.2-189.6-107.5-27.8-56.8-23.4-123.5 9.4-182.7zm104.3,425.5c-95.2,0-180.4-53-222.3-138.4-29.1-59.3-33.4-126.4-12-188.9 21.4-62.5 65.8-112.9 125.2-142 18.9-9.3 39-16.1 59.5-20.3 8.8-1.9 17.8,2.4 22.1,10.3 4.3,7.9 2.8,17.7-3.6,24.1-57.6,57.5-75.6,133.8-45.8,194.4 25.6,52.2 84.2,84.6 152.9,84.6 68.9,0 125.6-35.6 134.7-41.6 6.9-4.6 15.9-4.5 22.7,0.2 6.8,4.7 10,12.9 8.5,21.1-14.7,80.7-93.5,196.5-241.9,196.5z"/>
  </g>
</svg>
